<svg xmlns="http://www.w3.org/2000/svg" xmlns:xlink="http://www.w3.org/1999/xlink" width="256" zoomAndPan="magnify" viewBox="0 0 192 191.999996" height="256" preserveAspectRatio="xMidYMid meet" version="1.0"><defs><g/></defs><rect x="-19.2" width="230.4" fill="#ffffff" y="-19.2" height="230.399995" fill-opacity="1"/><rect x="-19.2" width="230.4" fill="#ffffff" y="-19.2" height="230.399995" fill-opacity="1"/><g fill="#8c6954" fill-opacity="1"><g transform="translate(15.835751, 155.551165)"><g><path d="M 100.640625 -102.828125 L 100.640625 -99.921875 C 97.546875 -99.535156 95.222656 -98.734375 93.671875 -97.515625 C 92.128906 -96.304688 91.085938 -94.394531 90.546875 -91.78125 C 90.015625 -89.164062 89.75 -85.488281 89.75 -80.75 L 89.75 0.296875 C 88.59375 0.191406 87.40625 0.140625 86.1875 0.140625 C 84.976562 0.140625 83.695312 0.191406 82.34375 0.296875 L 19.3125 -79.59375 L 19.3125 -23.8125 C 19.3125 -18.488281 19.601562 -14.398438 20.1875 -11.546875 C 20.769531 -8.691406 22.050781 -6.65625 24.03125 -5.4375 C 26.019531 -4.226562 29.144531 -3.382812 33.40625 -2.90625 L 33.40625 0 C 31.5625 -0.195312 29.140625 -0.316406 26.140625 -0.359375 C 23.140625 -0.410156 20.332031 -0.4375 17.71875 -0.4375 C 15.488281 -0.4375 13.210938 -0.410156 10.890625 -0.359375 C 8.566406 -0.316406 6.628906 -0.195312 5.078125 0 L 5.078125 -2.90625 C 8.179688 -3.382812 10.503906 -4.203125 12.046875 -5.359375 C 13.597656 -6.523438 14.640625 -8.441406 15.171875 -11.109375 C 15.703125 -13.773438 15.96875 -17.429688 15.96875 -22.078125 L 15.96875 -87.4375 C 15.96875 -91.019531 15.703125 -93.65625 15.171875 -95.34375 C 14.640625 -97.039062 13.570312 -98.203125 11.96875 -98.828125 C 10.375 -99.460938 8.078125 -99.828125 5.078125 -99.921875 L 5.078125 -102.828125 C 6.628906 -102.734375 8.566406 -102.632812 10.890625 -102.53125 C 13.210938 -102.4375 15.488281 -102.390625 17.71875 -102.390625 C 20.039062 -102.390625 22.265625 -102.4375 24.390625 -102.53125 C 26.523438 -102.632812 28.460938 -102.734375 30.203125 -102.828125 L 86.421875 -33.546875 L 86.421875 -79 C 86.421875 -84.332031 86.128906 -88.425781 85.546875 -91.28125 C 84.960938 -94.132812 83.675781 -96.191406 81.6875 -97.453125 C 79.707031 -98.710938 76.585938 -99.535156 72.328125 -99.921875 L 72.328125 -102.828125 C 74.171875 -102.734375 76.59375 -102.632812 79.59375 -102.53125 C 82.59375 -102.4375 85.398438 -102.390625 88.015625 -102.390625 C 90.335938 -102.390625 92.632812 -102.4375 94.90625 -102.53125 C 97.1875 -102.632812 99.097656 -102.734375 100.640625 -102.828125 Z M 100.640625 -102.828125 "/></g></g></g><g fill="#8c6954" fill-opacity="1"><g transform="translate(100.399537, 155.271484)"><g><path d="M 3.71875 -77.5 C 5.539062 -77.425781 8.003906 -77.351562 11.109375 -77.28125 C 14.210938 -77.207031 17.296875 -77.171875 20.359375 -77.171875 C 23.859375 -77.171875 27.25 -77.207031 30.53125 -77.28125 C 33.820312 -77.351562 36.160156 -77.390625 37.546875 -77.390625 C 44.335938 -77.390625 49.972656 -76.640625 54.453125 -75.140625 C 58.941406 -73.648438 62.300781 -71.484375 64.53125 -68.640625 C 66.757812 -65.796875 67.875 -62.363281 67.875 -58.34375 C 67.875 -55.863281 67.363281 -53.363281 66.34375 -50.84375 C 65.320312 -48.332031 63.585938 -46 61.140625 -43.84375 C 58.691406 -41.6875 55.347656 -39.96875 51.109375 -38.6875 C 46.878906 -37.414062 41.554688 -36.78125 35.140625 -36.78125 L 24.625 -36.78125 L 24.625 -38.96875 L 34.046875 -38.96875 C 38.347656 -38.96875 41.613281 -39.785156 43.84375 -41.421875 C 46.070312 -43.066406 47.601562 -45.257812 48.4375 -48 C 49.28125 -50.738281 49.703125 -53.785156 49.703125 -57.140625 C 49.703125 -62.910156 48.675781 -67.378906 46.625 -70.546875 C 44.582031 -73.722656 41.082031 -75.3125 36.125 -75.3125 C 33.28125 -75.3125 31.4375 -74.691406 30.59375 -73.453125 C 29.757812 -72.210938 29.34375 -69.695312 29.34375 -65.90625 L 29.34375 -11.609375 C 29.34375 -8.972656 29.539062 -7 29.9375 -5.6875 C 30.34375 -4.375 31.128906 -3.5 32.296875 -3.0625 C 33.460938 -2.625 35.210938 -2.332031 37.546875 -2.1875 L 37.546875 0 C 35.578125 -0.144531 33.09375 -0.234375 30.09375 -0.265625 C 27.101562 -0.304688 24.078125 -0.328125 21.015625 -0.328125 C 17.515625 -0.328125 14.210938 -0.304688 11.109375 -0.265625 C 8.003906 -0.234375 5.539062 -0.144531 3.71875 0 L 3.71875 -2.1875 C 6.050781 -2.332031 7.800781 -2.625 8.96875 -3.0625 C 10.144531 -3.5 10.929688 -4.375 11.328125 -5.6875 C 11.734375 -7 11.9375 -8.972656 11.9375 -11.609375 L 11.9375 -65.90625 C 11.9375 -68.601562 11.734375 -70.585938 11.328125 -71.859375 C 10.929688 -73.140625 10.128906 -74.015625 8.921875 -74.484375 C 7.710938 -74.960938 5.976562 -75.238281 3.71875 -75.3125 Z M 24.40625 -38.640625 C 27.550781 -38.566406 30.269531 -38.421875 32.5625 -38.203125 C 34.863281 -37.984375 36.890625 -37.78125 38.640625 -37.59375 C 40.390625 -37.414062 41.957031 -37.289062 43.34375 -37.21875 C 49.988281 -36.632812 54.894531 -35.210938 58.0625 -32.953125 C 61.238281 -30.691406 63.304688 -27.296875 64.265625 -22.765625 L 66.78125 -11.5 C 67.4375 -8.570312 68.128906 -6.523438 68.859375 -5.359375 C 69.585938 -4.191406 70.644531 -3.609375 72.03125 -3.609375 C 72.976562 -3.679688 73.757812 -3.914062 74.375 -4.3125 C 75 -4.71875 75.675781 -5.320312 76.40625 -6.125 L 77.9375 -4.8125 C 75.96875 -2.550781 73.851562 -0.929688 71.59375 0.046875 C 69.332031 1.035156 66.59375 1.53125 63.375 1.53125 C 59.4375 1.53125 56.191406 0.691406 53.640625 -0.984375 C 51.085938 -2.660156 49.410156 -5.765625 48.609375 -10.296875 L 46.640625 -21.234375 C 46.128906 -24.296875 45.503906 -26.976562 44.765625 -29.28125 C 44.035156 -31.582031 43.03125 -33.40625 41.75 -34.75 C 40.476562 -36.101562 38.710938 -36.78125 36.453125 -36.78125 L 24.625 -36.78125 Z M 24.40625 -38.640625 "/></g></g></g></svg>